<?xml version="1.0" standalone="no"?>
<!DOCTYPE svg PUBLIC "-//W3C//DTD SVG 20010904//EN"
 "http://www.w3.org/TR/2001/REC-SVG-20010904/DTD/svg10.dtd">
<svg version="1.0" xmlns="http://www.w3.org/2000/svg"
 width="626.000000pt" height="626.000000pt" viewBox="0 0 626.000000 626.000000"
 preserveAspectRatio="xMidYMid meet">

<g transform="translate(0.000000,626.000000) scale(0.100000,-0.100000)"
fill="#000000" stroke="none">
<path d="M4220 4875 c-6 -15 -13 -60 -17 -99 -13 -158 42 -314 143 -404 31
-28 102 -72 169 -106 171 -85 225 -158 225 -305 l0 -66 24 40 c14 22 42 82 63
133 40 100 52 106 34 20 -28 -134 -127 -303 -251 -428 -272 -276 -656 -394
-1135 -350 -325 30 -558 96 -1173 331 -654 250 -1112 390 -1415 435 -89 13
-124 14 -185 5 -78 -12 -159 -48 -179 -81 -12 -18 -10 -18 34 2 68 30 205 22
328 -20 191 -64 430 -185 648 -329 113 -75 186 -143 245 -230 24 -35 59 -74
80 -89 l37 -26 -30 7 c-47 10 -94 48 -154 127 -94 121 -220 208 -526 363 -284
144 -525 199 -642 146 -48 -22 -63 -45 -63 -95 0 -39 10 -45 31 -19 8 9 32 24
54 34 118 54 386 -11 710 -174 245 -122 322 -181 411 -313 70 -104 121 -144
227 -180 89 -30 183 -89 221 -139 15 -19 56 -87 92 -152 82 -147 148 -242 219
-318 30 -33 55 -61 55 -62 0 -14 -96 51 -143 96 -68 64 -114 129 -180 251 -25
47 -58 101 -72 120 -32 44 -95 86 -154 104 -25 7 -63 21 -84 29 -71 30 -37 7
56 -37 92 -44 178 -108 165 -121 -4 -5 -40 4 -80 18 -40 14 -74 25 -75 23 -2
-1 40 -27 93 -57 73 -42 102 -64 125 -98 29 -45 35 -61 22 -61 -19 0 -127 47
-226 97 -331 169 -607 411 -940 823 l-28 35 25 -45 c126 -224 410 -515 684
-698 109 -74 259 -156 382 -211 52 -24 109 -50 127 -58 32 -15 123 -123 104
-123 -16 0 -218 75 -311 114 -329 142 -640 362 -858 606 -102 113 -216 264
-273 361 -23 38 -44 67 -47 64 -10 -10 120 -253 185 -345 85 -119 287 -322
418 -421 256 -192 460 -293 900 -447 271 -94 365 -131 365 -144 0 -13 -80 -4
-235 29 -511 107 -964 345 -1312 691 -173 173 -294 338 -400 547 -60 119 -64
99 -8 -45 219 -573 784 -1030 1497 -1211 131 -33 291 -64 388 -74 36 -3 73 -9
83 -11 15 -5 17 3 17 72 0 82 17 204 29 204 4 0 13 -62 19 -137 27 -295 90
-466 243 -659 182 -230 491 -407 774 -445 125 -16 255 1 255 34 0 8 -33 28
-72 46 -220 97 -359 226 -433 401 -39 93 -77 142 -156 206 -110 88 -177 183
-213 303 -24 82 -20 105 9 51 40 -77 119 -184 145 -198 78 -41 514 67 754 187
64 32 116 56 116 52 0 -11 -152 -99 -250 -144 -142 -66 -297 -112 -460 -137
-132 -19 -126 -14 -75 -61 l45 -42 113 28 c651 158 1147 633 1331 1276 30 104
62 294 75 447 12 133 31 182 91 235 56 51 83 62 248 96 144 30 208 56 280 113
100 80 187 243 199 375 l6 66 -47 -47 c-87 -88 -136 -98 -376 -81 -125 8 -199
-3 -281 -45 -53 -28 -120 -90 -145 -135 -21 -40 -34 -45 -34 -12 0 38 -47 124
-90 166 -62 60 -149 99 -272 121 -176 32 -221 58 -272 161 -35 70 -36 71 -46
44z m896 -616 c10 -17 -13 -36 -27 -22 -12 12 -4 33 11 33 5 0 12 -5 16 -11z
m-2958 -1086 c32 -24 73 -94 86 -145 10 -42 1 -34 -35 29 -18 31 -54 79 -81
107 -26 27 -48 51 -48 53 0 6 44 -19 78 -44z m446 -227 c33 -25 86 -106 69
-106 -4 0 -21 13 -38 30 -16 16 -61 42 -99 57 -90 36 -100 57 -23 51 40 -3 65
-12 91 -32z m-102 -99 c14 -19 46 -44 70 -56 l43 -22 -40 5 c-63 9 -116 58
-129 121 -6 30 -6 30 11 8 10 -11 30 -37 45 -56z m418 -652 c0 -8 -7 -15 -15
-15 -8 0 -15 7 -15 15 0 8 7 15 15 15 8 0 15 -7 15 -15z m521 -550 c-1 -15
-24 -12 -29 3 -3 9 2 13 12 10 10 -1 17 -7 17 -13z m149 -111 c0 -16 -16 -19
-25 -4 -8 13 4 32 16 25 5 -4 9 -13 9 -21z"/>
<path d="M560 3734 c0 -45 34 -171 70 -257 132 -318 475 -698 829 -917 342
-212 753 -340 1173 -366 l107 -7 -10 39 c-6 21 -12 40 -13 42 -2 1 -59 9 -127
17 -534 62 -1004 262 -1384 587 -273 234 -469 496 -611 818 -28 63 -34 70 -34
44z"/>
<path d="M500 3614 c-1 -377 416 -936 917 -1231 251 -147 566 -260 876 -313
116 -19 470 -45 487 -35 4 3 0 26 -10 52 l-18 48 -88 7 c-341 29 -570 77 -801
168 -334 130 -595 301 -838 544 -246 247 -406 488 -490 739 l-35 102 0 -81z"/>
<path d="M1420 3459 c63 -63 135 -129 160 -147 50 -38 -93 102 -205 199 -45
39 -28 20 45 -52z"/>
<path d="M1750 2113 c0 -105 68 -275 158 -393 94 -125 239 -240 302 -240 27 0
26 8 -15 76 -62 103 -78 158 -79 269 -1 73 4 115 18 153 10 29 16 55 15 57 -2
1 -47 14 -99 29 -52 14 -141 41 -197 60 l-103 35 0 -46z"/>
</g>
</svg>
