<?xml version='1.0' encoding='utf-8'?>
<svg xmlns="http://www.w3.org/2000/svg" viewBox="0 0 155.99 77.1"> <g transform="matrix(1.1464 0 0 1.1464 -42.499 -79.33)"> <path d="m132.43 109.88a5.7881 5.6245 0 1 1 11.576 0 5.7881 5.6245 0 1 1-11.576 0z" stroke-width="10"/> <path d="m135.44 108.3a2.7204 1.9123 0 1 1 5.4409 0 2.7204 1.9123 0 1 1-5.4409 0z" fill="#fff" fill-opacity=".392" stroke-linecap="round" stroke-linejoin="round" stroke-width="5"/> <g fill="none"> <path d="m132.43 109.88a5.7881 5.6245 0 1 1 11.576 0 5.7881 5.6245 0 1 1-11.576 0z" stroke-width="10"/> <g stroke-linecap="round" stroke-linejoin="round"> <path d="m158.53 127.19c8.39 0 11.576-11.249 11.576-11.249s11.576-44.996-34.729-44.996c-34.729 0-55 48.66-77.535 43.346-6.8361-1.612 11.657-14.951 11.657-14.951s-16.678-2.4165-21.27 1.6264c-0.045364-11.757-4.6148-24.025-4.6148-24.025s-20.738 50.249 23.979 50.249h36.305s-3.4877 16.915 25.809 0h28.822z" fill-rule="evenodd" stroke="#000" stroke-width="3.489"/> <path d="m135.44 108.3a2.7204 1.9123 0 1 1 5.4409 0 2.7204 1.9123 0 1 1-5.4409 0z" fill-opacity=".392" stroke-width="5"/> </g> </g> <g fill="#fff" fill-rule="evenodd"> <path d="m160.1 90.073c2.7924-7.1086-12.86-16.468-29-13.5-17.843 3.2812-35.786 21.574-36.5 25-1.25 6 16.131-12.872 36-15.75 22.349-3.2368 28.5 6.7971 29.5 4.25z" fill-opacity=".75"/> <path d="m108.35 122.95c-3.5872 10.985 11.568 5.2464 15.125 1.25 4.14-4.6512-13.212-7.1082-15.125-1.25z"/> </g> </g> </svg>